<svg width="200" height="130" viewBox="0 0 200 130" fill="none" xmlns="http://www.w3.org/2000/svg">
<rect width="200" height="130" fill="#B7B6B8"/>
<path d="M74.265 69C74.185 69 74.117 68.972 74.061 68.916C74.005 68.86 73.977 68.792 73.977 68.712V60.9C73.977 60.812 74.005 60.74 74.061 60.684C74.117 60.628 74.185 60.6 74.265 60.6H75.189C75.301 60.6 75.381 60.628 75.429 60.684C75.485 60.732 75.521 60.768 75.537 60.792L78.993 66.168V60.9C78.993 60.812 79.017 60.74 79.065 60.684C79.121 60.628 79.193 60.6 79.281 60.6H80.289C80.377 60.6 80.449 60.628 80.505 60.684C80.561 60.74 80.589 60.812 80.589 60.9V68.7C80.589 68.788 80.561 68.86 80.505 68.916C80.449 68.972 80.381 69 80.301 69H79.365C79.253 69 79.173 68.972 79.125 68.916C79.077 68.86 79.041 68.824 79.017 68.808L75.573 63.552V68.712C75.573 68.792 75.545 68.86 75.489 68.916C75.433 68.972 75.361 69 75.273 69H74.265ZM85.0774 69.12C84.4374 69.12 83.8974 69.008 83.4574 68.784C83.0254 68.56 82.6934 68.244 82.4614 67.836C82.2374 67.428 82.1094 66.952 82.0774 66.408C82.0694 66.264 82.0654 66.088 82.0654 65.88C82.0654 65.672 82.0694 65.496 82.0774 65.352C82.1094 64.8 82.2414 64.324 82.4734 63.924C82.7134 63.516 83.0494 63.2 83.4814 62.976C83.9214 62.752 84.4534 62.64 85.0774 62.64C85.7014 62.64 86.2294 62.752 86.6614 62.976C87.1014 63.2 87.4374 63.516 87.6694 63.924C87.9094 64.324 88.0454 64.8 88.0774 65.352C88.0854 65.496 88.0894 65.672 88.0894 65.88C88.0894 66.088 88.0854 66.264 88.0774 66.408C88.0454 66.952 87.9134 67.428 87.6814 67.836C87.4574 68.244 87.1254 68.56 86.6854 68.784C86.2534 69.008 85.7174 69.12 85.0774 69.12ZM85.0774 67.932C85.5014 67.932 85.8294 67.8 86.0614 67.536C86.2934 67.264 86.4214 66.868 86.4454 66.348C86.4534 66.228 86.4574 66.072 86.4574 65.88C86.4574 65.688 86.4534 65.532 86.4454 65.412C86.4214 64.9 86.2934 64.508 86.0614 64.236C85.8294 63.964 85.5014 63.828 85.0774 63.828C84.6534 63.828 84.3254 63.964 84.0934 64.236C83.8614 64.508 83.7334 64.9 83.7094 65.412C83.7014 65.532 83.6974 65.688 83.6974 65.88C83.6974 66.072 83.7014 66.228 83.7094 66.348C83.7334 66.868 83.8614 67.264 84.0934 67.536C84.3254 67.8 84.6534 67.932 85.0774 67.932ZM92.5931 69C92.5131 69 92.4451 68.972 92.3891 68.916C92.3331 68.86 92.3051 68.792 92.3051 68.712V60.888C92.3051 60.808 92.3331 60.74 92.3891 60.684C92.4451 60.628 92.5131 60.6 92.5931 60.6H93.7211C93.8091 60.6 93.8771 60.628 93.9251 60.684C93.9811 60.74 94.0091 60.808 94.0091 60.888V68.712C94.0091 68.792 93.9811 68.86 93.9251 68.916C93.8771 68.972 93.8091 69 93.7211 69H92.5931ZM96.0351 69C95.9551 69 95.8871 68.972 95.8311 68.916C95.7751 68.86 95.7471 68.792 95.7471 68.712V63.048C95.7471 62.968 95.7751 62.9 95.8311 62.844C95.8871 62.788 95.9551 62.76 96.0351 62.76H96.9711C97.0511 62.76 97.1191 62.788 97.1751 62.844C97.2311 62.9 97.2591 62.968 97.2591 63.048V63.456C97.4271 63.232 97.6511 63.044 97.9311 62.892C98.2191 62.732 98.5591 62.648 98.9511 62.64C99.8631 62.624 100.499 62.98 100.859 63.708C101.043 63.388 101.307 63.132 101.651 62.94C102.003 62.74 102.391 62.64 102.815 62.64C103.231 62.64 103.607 62.736 103.943 62.928C104.287 63.12 104.555 63.412 104.747 63.804C104.947 64.188 105.047 64.676 105.047 65.268V68.712C105.047 68.792 105.019 68.86 104.963 68.916C104.907 68.972 104.839 69 104.759 69H103.775C103.695 69 103.627 68.972 103.571 68.916C103.515 68.86 103.487 68.792 103.487 68.712V65.364C103.487 65.004 103.435 64.72 103.331 64.512C103.227 64.296 103.087 64.144 102.911 64.056C102.735 63.968 102.539 63.924 102.323 63.924C102.147 63.924 101.971 63.968 101.795 64.056C101.619 64.144 101.475 64.296 101.363 64.512C101.251 64.72 101.195 65.004 101.195 65.364V68.712C101.195 68.792 101.167 68.86 101.111 68.916C101.055 68.972 100.987 69 100.907 69H99.9231C99.8351 69 99.7631 68.972 99.7071 68.916C99.6591 68.86 99.6351 68.792 99.6351 68.712V65.364C99.6351 65.004 99.5791 64.72 99.4671 64.512C99.3551 64.296 99.2111 64.144 99.0351 64.056C98.8591 63.968 98.6711 63.924 98.4711 63.924C98.2871 63.924 98.1071 63.972 97.9311 64.068C97.7551 64.156 97.6111 64.304 97.4991 64.512C97.3871 64.72 97.3311 65.004 97.3311 65.364V68.712C97.3311 68.792 97.3031 68.86 97.2471 68.916C97.1911 68.972 97.1231 69 97.0431 69H96.0351ZM108.387 69.12C107.971 69.12 107.595 69.04 107.259 68.88C106.923 68.712 106.655 68.492 106.455 68.22C106.263 67.94 106.167 67.628 106.167 67.284C106.167 66.724 106.391 66.28 106.839 65.952C107.295 65.616 107.895 65.392 108.639 65.28L110.283 65.04V64.788C110.283 64.452 110.199 64.192 110.031 64.008C109.863 63.824 109.575 63.732 109.167 63.732C108.879 63.732 108.643 63.792 108.459 63.912C108.283 64.024 108.151 64.176 108.063 64.368C107.999 64.472 107.907 64.524 107.787 64.524H106.839C106.751 64.524 106.683 64.5 106.635 64.452C106.595 64.404 106.575 64.34 106.575 64.26C106.583 64.132 106.635 63.976 106.731 63.792C106.827 63.608 106.979 63.432 107.187 63.264C107.395 63.088 107.663 62.94 107.991 62.82C108.319 62.7 108.715 62.64 109.179 62.64C109.683 62.64 110.107 62.704 110.451 62.832C110.803 62.952 111.083 63.116 111.291 63.324C111.499 63.532 111.651 63.776 111.747 64.056C111.843 64.336 111.891 64.632 111.891 64.944V68.712C111.891 68.792 111.863 68.86 111.807 68.916C111.751 68.972 111.683 69 111.603 69H110.631C110.543 69 110.471 68.972 110.415 68.916C110.367 68.86 110.343 68.792 110.343 68.712V68.244C110.239 68.396 110.099 68.54 109.923 68.676C109.747 68.804 109.531 68.912 109.275 69C109.027 69.08 108.731 69.12 108.387 69.12ZM108.795 67.98C109.075 67.98 109.327 67.92 109.551 67.8C109.783 67.68 109.963 67.496 110.091 67.248C110.227 66.992 110.295 66.672 110.295 66.288V66.036L109.095 66.228C108.623 66.3 108.271 66.416 108.039 66.576C107.807 66.736 107.691 66.932 107.691 67.164C107.691 67.34 107.743 67.492 107.847 67.62C107.959 67.74 108.099 67.832 108.267 67.896C108.435 67.952 108.611 67.98 108.795 67.98ZM116.251 71.64C115.667 71.64 115.187 71.564 114.811 71.412C114.435 71.26 114.139 71.076 113.923 70.86C113.707 70.644 113.551 70.428 113.455 70.212C113.367 70.004 113.319 69.84 113.311 69.72C113.303 69.64 113.327 69.568 113.383 69.504C113.447 69.448 113.519 69.42 113.599 69.42H114.643C114.723 69.42 114.787 69.436 114.835 69.468C114.883 69.508 114.923 69.576 114.955 69.672C115.003 69.776 115.067 69.888 115.147 70.008C115.227 70.128 115.347 70.228 115.507 70.308C115.675 70.396 115.903 70.44 116.191 70.44C116.495 70.44 116.751 70.396 116.959 70.308C117.167 70.22 117.323 70.072 117.427 69.864C117.539 69.656 117.595 69.368 117.595 69V68.184C117.403 68.416 117.155 68.604 116.851 68.748C116.555 68.892 116.187 68.964 115.747 68.964C115.315 68.964 114.943 68.896 114.631 68.76C114.319 68.616 114.059 68.42 113.851 68.172C113.643 67.916 113.483 67.616 113.371 67.272C113.267 66.928 113.207 66.548 113.191 66.132C113.183 65.916 113.183 65.7 113.191 65.484C113.207 65.084 113.267 64.712 113.371 64.368C113.475 64.024 113.631 63.724 113.839 63.468C114.055 63.204 114.319 63 114.631 62.856C114.943 62.712 115.315 62.64 115.747 62.64C116.203 62.64 116.587 62.728 116.899 62.904C117.211 63.072 117.467 63.284 117.667 63.54V63.06C117.667 62.972 117.695 62.9 117.751 62.844C117.807 62.788 117.875 62.76 117.955 62.76H118.927C119.007 62.76 119.075 62.788 119.131 62.844C119.187 62.9 119.215 62.972 119.215 63.06L119.227 68.844C119.227 69.42 119.119 69.916 118.903 70.332C118.687 70.748 118.359 71.068 117.919 71.292C117.487 71.524 116.931 71.64 116.251 71.64ZM116.191 67.692C116.519 67.692 116.783 67.62 116.983 67.476C117.183 67.332 117.331 67.144 117.427 66.912C117.523 66.68 117.579 66.444 117.595 66.204C117.603 66.1 117.607 65.968 117.607 65.808C117.607 65.648 117.603 65.52 117.595 65.424C117.579 65.176 117.523 64.94 117.427 64.716C117.331 64.484 117.183 64.296 116.983 64.152C116.783 64 116.519 63.924 116.191 63.924C115.863 63.924 115.599 64 115.399 64.152C115.199 64.296 115.055 64.488 114.967 64.728C114.887 64.968 114.839 65.232 114.823 65.52C114.807 65.712 114.807 65.908 114.823 66.108C114.839 66.388 114.887 66.652 114.967 66.9C115.055 67.14 115.199 67.332 115.399 67.476C115.599 67.62 115.863 67.692 116.191 67.692ZM123.513 69.12C122.625 69.12 121.921 68.864 121.401 68.352C120.881 67.84 120.601 67.112 120.561 66.168C120.553 66.088 120.549 65.988 120.549 65.868C120.549 65.74 120.553 65.64 120.561 65.568C120.593 64.968 120.729 64.448 120.969 64.008C121.217 63.568 121.557 63.232 121.989 63C122.421 62.76 122.929 62.64 123.513 62.64C124.161 62.64 124.705 62.776 125.145 63.048C125.585 63.312 125.917 63.684 126.141 64.164C126.365 64.636 126.477 65.184 126.477 65.808V66.06C126.477 66.14 126.449 66.208 126.393 66.264C126.337 66.32 126.265 66.348 126.177 66.348H122.193C122.193 66.348 122.193 66.36 122.193 66.384C122.193 66.408 122.193 66.428 122.193 66.444C122.201 66.724 122.253 66.984 122.349 67.224C122.453 67.456 122.601 67.644 122.793 67.788C122.993 67.932 123.229 68.004 123.501 68.004C123.725 68.004 123.913 67.972 124.065 67.908C124.217 67.836 124.341 67.756 124.437 67.668C124.533 67.58 124.601 67.508 124.641 67.452C124.713 67.356 124.769 67.3 124.809 67.284C124.857 67.26 124.925 67.248 125.013 67.248H126.045C126.125 67.248 126.189 67.272 126.237 67.32C126.293 67.368 126.317 67.428 126.309 67.5C126.301 67.628 126.233 67.784 126.105 67.968C125.985 68.152 125.809 68.332 125.577 68.508C125.345 68.684 125.053 68.832 124.701 68.952C124.357 69.064 123.961 69.12 123.513 69.12ZM122.193 65.34H124.845V65.304C124.845 64.992 124.793 64.72 124.689 64.488C124.585 64.256 124.433 64.072 124.233 63.936C124.033 63.8 123.793 63.732 123.513 63.732C123.233 63.732 122.993 63.8 122.793 63.936C122.593 64.072 122.441 64.256 122.337 64.488C122.241 64.72 122.193 64.992 122.193 65.304V65.34Z" fill="#0E0D13"/>
</svg>
